STARTFONT 2.1
COMMENT
COMMENT Converted from OpenType font "..\ttf\ITC Avant Garde Gothic Book Condensed.otf" by "otf2bdf.exe 3.0".
COMMENT
FONT -FreeType-AvantGarde CondBook-Medium-R-Normal--35-250-100-100-P-142-ISO10646-1
SIZE 25 100 100
FONTBOUNDINGBOX 40 41 -6 -7
STARTPROPERTIES 19
FOUNDRY "FreeType"
FAMILY_NAME "AvantGarde CondBook"
WEIGHT_NAME "Medium"
SLANT "R"
SETWIDTH_NAME "Normal"
ADD_STYLE_NAME ""
PIXEL_SIZE 35
POINT_SIZE 250
RESOLUTION_X 100
RESOLUTION_Y 100
SPACING "P"
AVERAGE_WIDTH 142
CHARSET_REGISTRY "ISO10646"
CHARSET_ENCODING "1"
FONT_ASCENT 25
FONT_DESCENT 6
COPYRIGHT "Copyright (c) 1989, 1990 Adobe Systems Incorporated.  All Rights Reserved.Avant Garde Gothic is a registered trademark of International Typeface Corporation."
_OTF_FONTFILE "..\ttf\ITC Avant Garde Gothic Book Condensed.otf"
_OTF_PSNAME "AvantGarde-CondBook"
ENDPROPERTIES
CHARS 235
STARTCHAR 0020
ENCODING 32
SWIDTH 288 0
DWIDTH 10 0
BBX 0 0 0 0
BITMAP
ENDCHAR
STARTCHAR 0021
ENCODING 33
SWIDTH 230 0
DWIDTH 8 0
BBX 3 25 2 0
BITMAP
E0
E0
E0
E0
E0
E0
E0
E0
E0
E0
E0
E0
E0
E0
E0
E0
E0
E0
E0
00
00
E0
E0
E0
E0
ENDCHAR
STARTCHAR 0022
ENCODING 34
SWIDTH 345 0
DWIDTH 12 0
BBX 6 9 3 15
BITMAP
CC
CC
CC
CC
CC
CC
CC
CC
CC
ENDCHAR
STARTCHAR 0023
ENCODING 35
SWIDTH 547 0
DWIDTH 19 0
BBX 17 25 1 0
BITMAP
030E00
030E00
030C00
070C00
070C00
060C00
060C00
061C00
7FFF80
7FFF80
0E1800
0E1800
0C1800
0C1800
0C1800
FFFF00
FFFF00
1C3000
1C3000
1C3000
183000
183000
187000
187000
186000
ENDCHAR
STARTCHAR 0024
ENCODING 36
SWIDTH 547 0
DWIDTH 19 0
BBX 15 32 2 -5
BITMAP
0300
0300
0300
0FC0
3FF0
7FF8
7038
E01C
E01C
E01C
E000
F000
7000
7C00
3F00
0FE0
03F0
00F8
003C
001C
000E
000E
E00E
E00E
E00E
701C
7878
3FF0
1FC0
0300
0300
0300
ENDCHAR
STARTCHAR 0025
ENCODING 37
SWIDTH 892 0
DWIDTH 31 0
BBX 27 25 2 0
BITMAP
1F803000
3FC06000
70E06000
E070C000
E070C000
E0718000
E0718000
E0738000
E0730000
70E30000
3FC60000
1F860000
000C1E00
000C7F80
0018E1C0
0018C0C0
0039C0E0
0031C0E0
0031C0E0
0061C0E0
0061C0E0
00C0C0C0
00C0E1C0
01807F80
01803F00
ENDCHAR
STARTCHAR 0026
ENCODING 38
SWIDTH 604 0
DWIDTH 21 0
BBX 19 25 1 0
BITMAP
03C000
0FF000
0FF000
1C3800
1C3800
1C3800
1C3800
1C7000
0E7000
0EE000
07C060
0780E0
1F80E0
3DC1C0
70E180
70E380
E07300
E03F00
E01E00
E01E00
E01E00
703F00
7C7B80
3FF3C0
0FC1C0
ENDCHAR
STARTCHAR 0027
ENCODING 39
SWIDTH 230 0
DWIDTH 8 0
BBX 2 9 3 15
BITMAP
C0
C0
C0
C0
C0
C0
C0
C0
C0
ENDCHAR
STARTCHAR 0028
ENCODING 40
SWIDTH 403 0
DWIDTH 14 0
BBX 10 32 2 -6
BITMAP
0040
01C0
03C0
0700
0E00
0E00
1C00
3800
3800
7000
7000
7000
E000
E000
E000
E000
E000
E000
E000
6000
7000
7000
7000
3800
3800
1C00
0E00
0700
0780
01C0
00C0
0040
ENDCHAR
STARTCHAR 0029
ENCODING 41
SWIDTH 403 0
DWIDTH 14 0
BBX 10 32 1 -6
BITMAP
8000
E000
F000
3800
1C00
0E00
0E00
0700
0300
0380
0380
01C0
01C0
01C0
01C0
01C0
01C0
01C0
01C0
01C0
0180
0380
0380
0700
0700
0E00
1C00
3C00
7800
F000
C000
8000
ENDCHAR
STARTCHAR 002A
ENCODING 42
SWIDTH 432 0
DWIDTH 15 0
BBX 12 12 2 12
BITMAP
0600
0600
4620
E670
76E0
1F80
0F00
3FC0
F6F0
4620
0600
0600
ENDCHAR
STARTCHAR 002B
ENCODING 43
SWIDTH 604 0
DWIDTH 21 0
BBX 17 18 2 0
BITMAP
01C000
01C000
01C000
01C000
01C000
01C000
01C000
01C000
FFFF80
FFFF80
01C000
01C000
01C000
01C000
01C000
01C000
01C000
01C000
ENDCHAR
STARTCHAR 002C
ENCODING 44
SWIDTH 288 0
DWIDTH 10 0
BBX 6 8 0 -4
BITMAP
0C
18
18
30
30
60
60
C0
ENDCHAR
STARTCHAR 002D
ENCODING 45
SWIDTH 345 0
DWIDTH 12 0
BBX 8 2 1 8
BITMAP
FF
FF
ENDCHAR
STARTCHAR 002E
ENCODING 46
SWIDTH 288 0
DWIDTH 10 0
BBX 3 3 3 1
BITMAP
E0
E0
E0
ENDCHAR
STARTCHAR 002F
ENCODING 47
SWIDTH 288 0
DWIDTH 10 0
BBX 11 25 -1 0
BITMAP
00E0
00C0
00C0
01C0
0180
0180
0380
0300
0300
0700
0600
0600
0E00
0C00
0C00
1C00
1800
1800
3800
3000
3000
7000
6000
6000
E000
ENDCHAR
STARTCHAR 0030
ENCODING 48
SWIDTH 547 0
DWIDTH 19 0
BBX 17 25 1 0
BITMAP
03E000
0FF800
1F7C00
3C1E00
380E00
700700
700700
700700
E00380
E00380
E00380
E00380
E00380
E00380
E00380
E00380
E00380
700300
700700
700700
380E00
3C1E00
1F7C00
0FF800
03E000
ENDCHAR
STARTCHAR 0031
ENCODING 49
SWIDTH 547 0
DWIDTH 19 0
BBX 7 25 5 0
BITMAP
FE
FE
0E
0E
0E
0E
0E
0E
0E
0E
0E
0E
0E
0E
0E
0E
0E
0E
0E
0E
0E
0E
0E
0E
0E
ENDCHAR
STARTCHAR 0032
ENCODING 50
SWIDTH 547 0
DWIDTH 19 0
BBX 15 25 2 0
BITMAP
07E0
1FF0
3E7C
701C
701E
E00E
E00E
E00E
000E
000C
001C
0038
0078
00F0
00E0
01C0
0380
0700
0E00
1C00
3800
7000
F000
FFFE
FFFE
ENDCHAR
STARTCHAR 0033
ENCODING 51
SWIDTH 547 0
DWIDTH 19 0
BBX 16 25 1 0
BITMAP
07E0
1FF8
3C7C
381C
700E
700E
700E
000E
000C
003C
03F0
03F0
007C
000E
000E
0007
0007
E007
E007
E007
7007
700E
3E7C
1FF8
0FE0
ENDCHAR
STARTCHAR 0034
ENCODING 52
SWIDTH 547 0
DWIDTH 19 0
BBX 16 25 1 0
BITMAP
0078
0078
00F8
00F8
01F8
03B8
0338
0738
0638
0E38
0C38
1C38
1838
3838
7038
7038
E038
FFFF
FFFF
0038
0038
0038
0038
0038
0038
ENDCHAR
STARTCHAR 0035
ENCODING 53
SWIDTH 547 0
DWIDTH 19 0
BBX 15 25 2 0
BITMAP
3FF8
3FF8
3000
3000
3000
3000
3000
7000
77E0
6FF8
7C3C
701C
700E
600E
000E
000E
000E
000E
E00E
E00E
F01C
701C
7C78
3FF0
0FC0
ENDCHAR
STARTCHAR 0036
ENCODING 54
SWIDTH 547 0
DWIDTH 19 0
BBX 16 25 1 0
BITMAP
03F0
0FFC
1F7E
3C0E
380F
7007
7007
6000
6000
E7F0
EFFC
FC3E
F80E
F00F
F007
F007
E007
7007
7007
7007
700E
381E
1FFC
0FF8
07E0
ENDCHAR
STARTCHAR 0037
ENCODING 55
SWIDTH 547 0
DWIDTH 19 0
BBX 15 25 2 0
BITMAP
FFFE
FFFE
000E
000E
001C
001C
0018
0038
0038
0030
0070
0070
00E0
00E0
00E0
01C0
01C0
01C0
0380
0380
0700
0700
0700
0E00
0E00
ENDCHAR
STARTCHAR 0038
ENCODING 56
SWIDTH 547 0
DWIDTH 19 0
BBX 17 25 1 0
BITMAP
07F000
1FFC00
3E3E00
380E00
700700
700700
700700
700700
380E00
3C1E00
0FF800
0FFC00
3E3E00
780F00
700780
E00380
E00380
E00380
E00380
E00380
700700
780F00
3E3E00
1FFC00
07F000
ENDCHAR
STARTCHAR 0039
ENCODING 57
SWIDTH 547 0
DWIDTH 19 0
BBX 17 25 1 0
BITMAP
07E000
1FF800
3FFC00
781E00
700F00
700700
E00700
E00380
E00380
E00780
E00780
700780
780F80
3C1F80
1FFB80
07E380
000300
000300
E00700
E00700
700E00
781E00
3FFC00
1FF800
07E000
ENDCHAR
STARTCHAR 003A
ENCODING 58
SWIDTH 288 0
DWIDTH 10 0
BBX 3 16 3 0
BITMAP
E0
E0
E0
E0
00
00
00
00
00
00
00
00
00
E0
E0
E0
ENDCHAR
STARTCHAR 003B
ENCODING 59
SWIDTH 288 0
DWIDTH 10 0
BBX 6 20 0 -4
BITMAP
1C
1C
1C
1C
00
00
00
00
00
00
00
00
1C
18
18
30
30
60
60
C0
ENDCHAR
STARTCHAR 003C
ENCODING 60
SWIDTH 604 0
DWIDTH 21 0
BBX 17 18 2 -1
BITMAP
000080
000380
000F80
003F00
00FC00
03E000
0F8000
3E0000
F80000
F00000
FC0000
1F0000
07C000
01F000
007E00
001F80
000780
000180
ENDCHAR
STARTCHAR 003D
ENCODING 61
SWIDTH 604 0
DWIDTH 21 0
BBX 17 9 2 4
BITMAP
FFFF80
FFFF80
000000
000000
000000
000000
000000
FFFF80
FFFF80
ENDCHAR
STARTCHAR 003E
ENCODING 62
SWIDTH 604 0
DWIDTH 21 0
BBX 17 18 2 1
BITMAP
800000
E00000
F80000
3F0000
0FC000
03F000
00FC00
001F00
000780
000780
003F00
00FC00
03F000
0FC000
3E0000
F80000
E00000
800000
ENDCHAR
STARTCHAR 003F
ENCODING 63
SWIDTH 432 0
DWIDTH 15 0
BBX 13 25 1 0
BITMAP
0FC0
3FE0
7CF0
7070
E038
E038
E038
E038
0038
0070
00F0
01E0
03C0
0780
0700
0700
0700
0700
0700
0000
0000
0700
0700
0700
0700
ENDCHAR
STARTCHAR 0040
ENCODING 64
SWIDTH 806 0
DWIDTH 28 0
BBX 26 25 1 0
BITMAP
007F8000
01FFF000
07C0F800
0F001E00
1E000F00
3C000700
383E3380
707FF380
70E3F1C0
71C1E1C0
E380E1C0
E380E1C0
E300C1C0
E701C180
E701C380
E7038300
77038700
73879E00
3BFFF800
38F1E380
1C000700
0F001E00
07C0F800
01FFF000
007F8000
ENDCHAR
STARTCHAR 0041
ENCODING 65
SWIDTH 489 0
DWIDTH 17 0
BBX 17 25 0 0
BITMAP
01C000
03E000
03E000
036000
076000
077000
063000
063000
0E3800
0C3800
0C1800
0C1800
1C1C00
181C00
180C00
1FFC00
3FFE00
300E00
300600
700700
700700
600300
600300
E00380
C00380
ENDCHAR
STARTCHAR 0042
ENCODING 66
SWIDTH 547 0
DWIDTH 19 0
BBX 16 25 2 0
BITMAP
FFE0
FFF8
E07C
E01C
E00E
E00E
E00E
E00E
E00E
E01C
E03C
FFF0
FFF8
E03C
E00E
E007
E007
E007
E007
E007
E007
E00E
E03E
FFFC
FFF0
ENDCHAR
STARTCHAR 0043
ENCODING 67
SWIDTH 547 0
DWIDTH 19 0
BBX 17 25 1 0
BITMAP
03F000
0FFC00
1E3E00
380E00
380700
700700
700380
600380
E00380
E00000
E00000
E00000
E00000
E00000
E00000
E00000
E00380
600380
700380
700380
380700
3C0F00
1E3E00
0FFC00
03F000
ENDCHAR
STARTCHAR 0044
ENCODING 68
SWIDTH 604 0
DWIDTH 21 0
BBX 18 25 2 0
BITMAP
FFE000
FFF800
E03E00
E00E00
E00700
E00380
E00380
E00380
E001C0
E001C0
E001C0
E001C0
E001C0
E001C0
E001C0
E001C0
E00180
E00380
E00380
E00380
E00700
E00E00
E03C00
FFF800
FFE000
ENDCHAR
STARTCHAR 0045
ENCODING 69
SWIDTH 489 0
DWIDTH 17 0
BBX 13 25 2 0
BITMAP
FFF8
FFF8
E000
E000
E000
E000
E000
E000
E000
E000
E000
FFF8
FFF8
E000
E000
E000
E000
E000
E000
E000
E000
E000
E000
FFF8
FFF8
ENDCHAR
STARTCHAR 0046
ENCODING 70
SWIDTH 432 0
DWIDTH 15 0
BBX 12 25 2 0
BITMAP
FFF0
FFF0
E000
E000
E000
E000
E000
E000
E000
E000
E000
FFF0
FFF0
E000
E000
E000
E000
E000
E000
E000
E000
E000
E000
E000
E000
ENDCHAR
STARTCHAR 0047
ENCODING 71
SWIDTH 604 0
DWIDTH 21 0
BBX 19 25 1 0
BITMAP
03F800
0FFE00
1F1F00
3C0780
380380
7001C0
7001C0
6001C0
E00000
E00000
E00000
E00000
E00000
E1FFE0
E1FFE0
E000E0
E000E0
6000E0
7000E0
7001C0
3801C0
3C0380
1F1F80
0FFE00
03F800
ENDCHAR
STARTCHAR 0048
ENCODING 72
SWIDTH 604 0
DWIDTH 21 0
BBX 17 25 2 0
BITMAP
E00380
E00380
E00380
E00380
E00380
E00380
E00380
E00380
E00380
E00380
E00380
FFFF80
FFFF80
E00380
E00380
E00380
E00380
E00380
E00380
E00380
E00380
E00380
E00380
E00380
E00380
ENDCHAR
STARTCHAR 0049
ENCODING 73
SWIDTH 230 0
DWIDTH 8 0
BBX 3 25 2 0
BITMAP
E0
E0
E0
E0
E0
E0
E0
E0
E0
E0
E0
E0
E0
E0
E0
E0
E0
E0
E0
E0
E0
E0
E0
E0
E0
ENDCHAR
STARTCHAR 004A
ENCODING 74
SWIDTH 432 0
DWIDTH 15 0
BBX 13 25 0 0
BITMAP
0038
0038
0038
0038
0038
0038
0038
0038
0038
0038
0038
0038
0038
0038
0038
0038
0038
0038
0038
E038
E038
7070
78F0
3FE0
1F80
ENDCHAR
STARTCHAR 004B
ENCODING 75
SWIDTH 547 0
DWIDTH 19 0
BBX 16 25 2 0
BITMAP
E00E
E01C
E038
E038
E070
E0E0
E0E0
E1C0
E380
E380
E780
EFC0
FDC0
F8E0
F8E0
F070
E070
E038
E038
E01C
E01C
E00E
E00E
E007
E007
ENDCHAR
STARTCHAR 004C
ENCODING 76
SWIDTH 432 0
DWIDTH 15 0
BBX 12 25 2 0
BITMAP
E000
E000
E000
E000
E000
E000
E000
E000
E000
E000
E000
E000
E000
E000
E000
E000
E000
E000
E000
E000
E000
E000
E000
FFF0
FFF0
ENDCHAR
STARTCHAR 004D
ENCODING 77
SWIDTH 720 0
DWIDTH 25 0
BBX 20 25 2 0
BITMAP
F000F0
F800F0
F801F0
F801F0
FC01F0
FC03F0
EC03F0
EC0370
EE0370
E60770
E60670
E70670
E70670
E30E70
E38C70
E38C70
E19C70
E19870
E1D870
E0D870
E0F870
E0F070
E0F070
E07070
E06070
ENDCHAR
STARTCHAR 004E
ENCODING 78
SWIDTH 604 0
DWIDTH 21 0
BBX 17 25 2 0
BITMAP
F00380
F00380
F80380
F80380
FC0380
FC0380
EE0380
EE0380
E70380
E78380
E38380
E1C380
E1C380
E0E380
E0E380
E07380
E07B80
E03B80
E03F80
E01F80
E00F80
E00F80
E00780
E00780
E00380
ENDCHAR
STARTCHAR 004F
ENCODING 79
SWIDTH 604 0
DWIDTH 21 0
BBX 19 25 1 0
BITMAP
03F800
0FFE00
1F1F00
3C0780
380380
7001C0
7001C0
6001C0
E000E0
E000E0
E000E0
E000E0
E000E0
E000E0
E000E0
E000E0
E000E0
6000C0
7001C0
7001C0
380380
3C0780
1F1F00
0FFE00
03F000
ENDCHAR
STARTCHAR 0050
ENCODING 80
SWIDTH 547 0
DWIDTH 19 0
BBX 16 25 2 0
BITMAP
FFE0
FFF8
E07C
E00E
E00E
E007
E007
E007
E007
E007
E00E
E00E
E07C
FFF8
FFE0
E000
E000
E000
E000
E000
E000
E000
E000
E000
E000
ENDCHAR
STARTCHAR 0051
ENCODING 81
SWIDTH 604 0
DWIDTH 21 0
BBX 19 25 1 0
BITMAP
03F800
0FFE00
1F1F00
3C0780
380380
7001C0
7001C0
6001C0
E000E0
E000E0
E000E0
E000E0
E000E0
E000E0
E000E0
E000E0
E000E0
7FC0C0
7FE1C0
7079C0
383F80
3C1F80
1F0FC0
0FFFE0
03F1E0
ENDCHAR
STARTCHAR 0052
ENCODING 82
SWIDTH 547 0
DWIDTH 19 0
BBX 16 25 2 0
BITMAP
FFE0
FFF8
E07C
E00E
E00E
E007
E007
E007
E007
E007
E00E
E00E
E07E
E3FC
E3F0
E1C0
E0E0
E0E0
E070
E038
E038
E01C
E00E
E00E
E007
ENDCHAR
STARTCHAR 0053
ENCODING 83
SWIDTH 489 0
DWIDTH 17 0
BBX 16 25 1 0
BITMAP
0FE0
3FF0
7C78
701C
E01C
E00E
E00E
E000
F000
7800
3E00
1FC0
07F8
00FC
003E
000E
0007
E007
E007
E007
E006
700E
7C3C
3FF8
0FE0
ENDCHAR
STARTCHAR 0054
ENCODING 84
SWIDTH 432 0
DWIDTH 15 0
BBX 15 25 0 0
BITMAP
FFFE
FFFE
0380
0380
0380
0380
0380
0380
0380
0380
0380
0380
0380
0380
0380
0380
0380
0380
0380
0380
0380
0380
0380
0380
0380
ENDCHAR
STARTCHAR 0055
ENCODING 85
SWIDTH 547 0
DWIDTH 19 0
BBX 15 25 2 0
BITMAP
E00E
E00E
E00E
E00E
E00E
E00E
E00E
E00E
E00E
E00E
E00E
E00E
E00E
E00E
E00E
E00E
E00E
E00E
E00E
E00E
E00E
701C
7C7C
3FF8
0FE0
ENDCHAR
STARTCHAR 0056
ENCODING 86
SWIDTH 489 0
DWIDTH 17 0
BBX 17 25 0 0
BITMAP
E00180
E00380
600380
700300
700300
300700
300700
380600
380600
180E00
180C00
1C0C00
0C1C00
0C1C00
0E1800
0E1800
063800
063800
073000
033000
037000
03F000
03E000
01E000
01E000
ENDCHAR
STARTCHAR 0057
ENCODING 87
SWIDTH 835 0
DWIDTH 29 0
BBX 28 25 0 0
BITMAP
E00F0070
E00F0070
600F0060
600F0060
700F00E0
301F80C0
301D80C0
381981C0
381981C0
18198180
1839C180
1C38C380
1C30C380
0C30C300
0C30C300
0E30E700
0670E600
06706600
07606600
07606E00
03607C00
03607C00
03E03C00
03E03C00
01C03800
ENDCHAR
STARTCHAR 0058
ENCODING 88
SWIDTH 489 0
DWIDTH 17 0
BBX 17 25 0 0
BITMAP
700700
380E00
380E00
181C00
1C1C00
0C3800
0E3800
067000
077000
03E000
03E000
01C000
01C000
03E000
076000
077000
0E3800
0E3800
1C1C00
1C1C00
380E00
380E00
700700
700700
E00380
ENDCHAR
STARTCHAR 0059
ENCODING 89
SWIDTH 489 0
DWIDTH 17 0
BBX 17 25 0 0
BITMAP
E00380
700700
700700
380600
380E00
1C0C00
1C1C00
0C1C00
0E3800
063800
077000
077000
03E000
03E000
01C000
01C000
01C000
01C000
01C000
01C000
01C000
01C000
01C000
01C000
01C000
ENDCHAR
STARTCHAR 005A
ENCODING 90
SWIDTH 432 0
DWIDTH 15 0
BBX 14 25 1 0
BITMAP
FFFC
FFFC
003C
0038
0078
0070
00F0
00E0
01E0
01C0
03C0
0380
0780
0700
0E00
0E00
1C00
1C00
3800
3800
7000
7000
E000
FFFC
FFFC
ENDCHAR
STARTCHAR 005B
ENCODING 91
SWIDTH 403 0
DWIDTH 14 0
BBX 9 32 3 -7
BITMAP
FF80
FF80
E000
E000
E000
E000
E000
E000
E000
E000
E000
E000
E000
E000
E000
E000
E000
E000
E000
E000
E000
E000
E000
E000
E000
E000
E000
E000
E000
E000
FF80
FF80
ENDCHAR
STARTCHAR 005C
ENCODING 92
SWIDTH 288 0
DWIDTH 10 0
BBX 11 25 -1 0
BITMAP
E000
E000
6000
7000
7000
3000
3800
1800
1800
1C00
0C00
0C00
0E00
0600
0600
0700
0300
0300
0380
0180
0180
01C0
00C0
00C0
00E0
ENDCHAR
STARTCHAR 005D
ENCODING 93
SWIDTH 403 0
DWIDTH 14 0
BBX 9 32 1 -7
BITMAP
FF80
FF80
0380
0380
0380
0380
0380
0380
0380
0380
0380
0380
0380
0380
0380
0380
0380
0380
0380
0380
0380
0380
0380
0380
0380
0380
0380
0380
0380
0380
FF80
FF80
ENDCHAR
STARTCHAR 005E
ENCODING 94
SWIDTH 604 0
DWIDTH 21 0
BBX 17 15 2 9
BITMAP
01C000
01C000
03E000
036000
077000
063000
0E3800
0C1800
1C1C00
180C00
380E00
300600
700700
600300
E00380
ENDCHAR
STARTCHAR 005F
ENCODING 95
SWIDTH 489 0
DWIDTH 17 0
BBX 17 2 0 -4
BITMAP
FFFF80
FFFF80
ENDCHAR
STARTCHAR 0060
ENCODING 96
SWIDTH 230 0
DWIDTH 8 0
BBX 6 5 0 21
BITMAP
E0
60
30
18
0C
ENDCHAR
STARTCHAR 0061
ENCODING 97
SWIDTH 489 0
DWIDTH 17 0
BBX 15 19 1 0
BITMAP
07CE
1FEE
3C7E
781E
701E
600E
E00E
E00E
E00E
E00E
E00E
E00E
E00E
700E
701E
781E
3C7E
1FEE
07CE
ENDCHAR
STARTCHAR 0062
ENCODING 98
SWIDTH 489 0
DWIDTH 17 0
BBX 14 25 2 0
BITMAP
E000
E000
E000
E000
E000
E000
E7C0
EFE0
FCF0
F038
F038
E01C
E01C
E01C
E01C
E01C
E01C
E01C
E01C
E01C
F038
F038
FCF0
FFE0
E7C0
ENDCHAR
STARTCHAR 0063
ENCODING 99
SWIDTH 432 0
DWIDTH 15 0
BBX 13 19 1 0
BITMAP
0FC0
1FE0
3CF0
7070
7038
6038
E038
E000
E000
E000
E000
E000
E038
7038
7038
7870
3CF0
1FE0
0FC0
ENDCHAR
STARTCHAR 0064
ENCODING 100
SWIDTH 489 0
DWIDTH 17 0
BBX 14 25 1 0
BITMAP
001C
001C
001C
001C
001C
001C
079C
1FFC
3CFC
703C
703C
601C
E01C
E01C
E01C
E01C
E01C
E01C
E01C
701C
703C
783C
3CFC
1FFC
0F9C
ENDCHAR
STARTCHAR 0065
ENCODING 101
SWIDTH 432 0
DWIDTH 15 0
BBX 14 19 1 0
BITMAP
07C0
1FE0
3CF0
7038
7038
601C
E01C
E01C
FFFC
FFFC
E000
E000
E01C
601C
7018
7838
3CF0
1FE0
07C0
ENDCHAR
STARTCHAR 0066
ENCODING 102
SWIDTH 230 0
DWIDTH 8 0
BBX 8 25 0 0
BITMAP
0F
1F
38
38
38
38
FF
FF
38
38
38
38
38
38
38
38
38
38
38
38
38
38
38
38
38
ENDCHAR
STARTCHAR 0067
ENCODING 103
SWIDTH 489 0
DWIDTH 17 0
BBX 14 26 1 -7
BITMAP
0F9C
1FDC
3CFC
703C
703C
601C
E01C
E01C
E01C
E01C
E01C
E01C
E01C
701C
703C
783C
3CFC
1FDC
0F9C
001C
E01C
E01C
703C
7878
3FF0
0FC0
ENDCHAR
STARTCHAR 0068
ENCODING 104
SWIDTH 489 0
DWIDTH 17 0
BBX 13 25 2 0
BITMAP
E000
E000
E000
E000
E000
E000
E7C0
FFF0
FCF0
F078
E038
E038
E038
E038
E038
E038
E038
E038
E038
E038
E038
E038
E038
E038
E038
ENDCHAR
STARTCHAR 0069
ENCODING 105
SWIDTH 230 0
DWIDTH 8 0
BBX 3 25 2 0
BITMAP
E0
E0
E0
00
00
00
E0
E0
E0
E0
E0
E0
E0
E0
E0
E0
E0
E0
E0
E0
E0
E0
E0
E0
E0
ENDCHAR
STARTCHAR 006A
ENCODING 106
SWIDTH 230 0
DWIDTH 8 0
BBX 7 32 -2 -6
BITMAP
0E
0E
0E
00
00
00
0E
0E
0E
0E
0E
0E
0E
0E
0E
0E
0E
0E
0E
0E
0E
0E
0E
0E
0E
0E
0E
0E
0E
1E
FC
F8
ENDCHAR
STARTCHAR 006B
ENCODING 107
SWIDTH 432 0
DWIDTH 15 0
BBX 13 25 2 0
BITMAP
E000
E000
E000
E000
E000
E000
E070
E060
E0E0
E1C0
E180
E300
E700
E700
EF00
FB80
F980
F1C0
E1C0
E0E0
E0E0
E070
E070
E030
E038
ENDCHAR
STARTCHAR 006C
ENCODING 108
SWIDTH 230 0
DWIDTH 8 0
BBX 3 25 2 0
BITMAP
E0
E0
E0
E0
E0
E0
E0
E0
E0
E0
E0
E0
E0
E0
E0
E0
E0
E0
E0
E0
E0
E0
E0
E0
E0
ENDCHAR
STARTCHAR 006D
ENCODING 109
SWIDTH 777 0
DWIDTH 27 0
BBX 23 19 2 0
BITMAP
E7C1F0
EFE7F8
FCFF3C
F07C1E
E0380E
E0380E
E0380E
E0380E
E0380E
E0380E
E0380E
E0380E
E0380E
E0380E
E0380E
E0380E
E0380E
E0380E
E0380E
ENDCHAR
STARTCHAR 006E
ENCODING 110
SWIDTH 489 0
DWIDTH 17 0
BBX 13 19 2 0
BITMAP
E7C0
EFF0
FCF0
F078
E038
E038
E038
E038
E038
E038
E038
E038
E038
E038
E038
E038
E038
E038
E038
ENDCHAR
STARTCHAR 006F
ENCODING 111
SWIDTH 489 0
DWIDTH 17 0
BBX 15 19 1 0
BITMAP
07C0
1FF0
3C78
783C
701C
700E
E00E
E00E
E00E
E00E
E00E
E00E
E00E
700E
701C
783C
3C78
1FF0
07C0
ENDCHAR
STARTCHAR 0070
ENCODING 112
SWIDTH 489 0
DWIDTH 17 0
BBX 14 26 2 -7
BITMAP
E7C0
EFE0
FCF0
F038
F038
E01C
E01C
E01C
E01C
E01C
E01C
E01C
E01C
E01C
F038
F038
FCF0
EFE0
E7C0
E000
E000
E000
E000
E000
E000
E000
ENDCHAR
STARTCHAR 0071
ENCODING 113
SWIDTH 489 0
DWIDTH 17 0
BBX 14 26 1 -7
BITMAP
0F9C
1FFC
3CFC
783C
703C
701C
E01C
E01C
E01C
E01C
E01C
E01C
E01C
601C
703C
703C
3CFC
1FDC
0F9C
001C
001C
001C
001C
001C
001C
001C
ENDCHAR
STARTCHAR 0072
ENCODING 114
SWIDTH 288 0
DWIDTH 10 0
BBX 8 19 2 0
BITMAP
E7
FF
FE
F0
E0
E0
E0
E0
E0
E0
E0
E0
E0
E0
E0
E0
E0
E0
E0
ENDCHAR
STARTCHAR 0073
ENCODING 115
SWIDTH 432 0
DWIDTH 15 0
BBX 13 19 1 0
BITMAP
0FC0
1FE0
3CF0
7038
7038
7038
7000
7C00
3F80
0FE0
03F0
0078
0038
E038
E038
F038
78F0
3FE0
0FC0
ENDCHAR
STARTCHAR 0074
ENCODING 116
SWIDTH 230 0
DWIDTH 8 0
BBX 8 25 0 0
BITMAP
38
38
38
38
38
38
FF
FF
38
38
38
38
38
38
38
38
38
38
38
38
38
38
38
38
38
ENDCHAR
STARTCHAR 0075
ENCODING 117
SWIDTH 489 0
DWIDTH 17 0
BBX 13 19 2 0
BITMAP
E038
E038
E038
E038
E038
E038
E038
E038
E038
E038
E038
E038
E038
E038
E038
F078
79F8
3FB8
1F38
ENDCHAR
STARTCHAR 0076
ENCODING 118
SWIDTH 432 0
DWIDTH 15 0
BBX 14 19 0 0
BITMAP
E01C
E01C
6018
7038
7038
3030
3030
3870
3860
1860
1CE0
1CE0
1CC0
0CC0
0FC0
0F80
0780
0780
0780
ENDCHAR
STARTCHAR 0077
ENCODING 119
SWIDTH 662 0
DWIDTH 23 0
BBX 23 19 0 0
BITMAP
E0380E
E0380E
603C0C
706C0C
706C1C
306C18
306E18
386E18
38C638
18C630
18C630
1CC730
0CC370
0DC360
0D8360
0F8360
0783C0
0781C0
0781C0
ENDCHAR
STARTCHAR 0078
ENCODING 120
SWIDTH 432 0
DWIDTH 15 0
BBX 15 19 0 0
BITMAP
701C
381C
3838
1C30
1C70
0EE0
06E0
07C0
0380
0380
07C0
06E0
0EE0
1C70
1C70
3838
303C
701C
E00E
ENDCHAR
STARTCHAR 0079
ENCODING 121
SWIDTH 432 0
DWIDTH 15 0
BBX 15 26 0 -7
BITMAP
E00E
E00E
600C
701C
701C
3018
3838
3838
1830
1870
1C70
0C60
0C60
0EE0
06C0
06C0
07C0
0780
0380
0380
0300
0700
0700
0600
0E00
0E00
ENDCHAR
STARTCHAR 007A
ENCODING 122
SWIDTH 432 0
DWIDTH 15 0
BBX 13 19 1 0
BITMAP
7FF8
7FF8
0038
0070
00F0
00E0
01C0
03C0
0380
0700
0F00
0E00
1C00
3800
3800
7000
E000
FFF8
FFF8
ENDCHAR
STARTCHAR 007B
ENCODING 123
SWIDTH 403 0
DWIDTH 14 0
BBX 11 32 1 -7
BITMAP
0FE0
1FE0
3C00
3800
3800
3800
3800
3800
3800
3800
3800
3800
3800
3800
7800
F000
F000
7800
3800
3800
3800
3800
3800
3800
3800
3800
3800
3800
3800
3C00
1FE0
0FE0
ENDCHAR
STARTCHAR 007C
ENCODING 124
SWIDTH 230 0
DWIDTH 8 0
BBX 3 25 2 0
BITMAP
E0
E0
E0
E0
E0
E0
E0
E0
E0
E0
E0
E0
E0
E0
E0
E0
E0
E0
E0
E0
E0
E0
E0
E0
E0
ENDCHAR
STARTCHAR 007D
ENCODING 125
SWIDTH 403 0
DWIDTH 14 0
BBX 11 32 1 -7
BITMAP
FF00
FF00
0380
0380
0380
0380
0380
0380
0380
0380
0380
0380
0380
0380
03C0
01E0
01E0
03C0
0380
0380
0380
0380
0380
0380
0380
0380
0380
0380
0380
0380
FF00
FF00
ENDCHAR
STARTCHAR 007E
ENCODING 126
SWIDTH 604 0
DWIDTH 21 0
BBX 16 5 2 6
BITMAP
3E02
7FC7
E3FE
C0FC
0078
ENDCHAR
STARTCHAR 00A0
ENCODING 160
SWIDTH 288 0
DWIDTH 10 0
BBX 0 0 0 0
BITMAP
ENDCHAR
STARTCHAR 00A1
ENCODING 161
SWIDTH 230 0
DWIDTH 8 0
BBX 3 25 2 -7
BITMAP
E0
E0
E0
E0
00
00
E0
E0
E0
E0
E0
E0
E0
E0
E0
E0
E0
E0
E0
E0
E0
E0
E0
E0
E0
ENDCHAR
STARTCHAR 00A2
ENCODING 162
SWIDTH 547 0
DWIDTH 19 0
BBX 14 25 2 0
BITMAP
0300
0300
0300
0FC0
1FF0
3DF0
7038
701C
601C
E01C
E000
E000
E000
E000
E000
E01C
701C
701C
7838
3DF8
1FF0
0FC0
0300
0300
0300
ENDCHAR
STARTCHAR 00A3
ENCODING 163
SWIDTH 547 0
DWIDTH 19 0
BBX 17 25 1 0
BITMAP
07E000
0FF800
1FFC00
381E00
380F00
700700
700700
700000
700000
700000
300000
FFF800
FFF800
0C0000
0E0000
060000
070380
070380
070380
070380
070780
070700
067F00
7FFE00
7FF800
ENDCHAR
STARTCHAR 00A4
ENCODING 164
SWIDTH 547 0
DWIDTH 19 0
BBX 17 17 1 4
BITMAP
43E100
EFFB80
7E3E00
380E00
700700
700700
E00380
E00380
E00380
E00380
E00380
700300
700700
380E00
7E3F00
EFFB80
43E100
ENDCHAR
STARTCHAR 00A5
ENCODING 165
SWIDTH 547 0
DWIDTH 19 0
BBX 17 25 1 0
BITMAP
E00380
700700
700700
380E00
380E00
1C0C00
1C1C00
0E1800
0E3800
7E3F00
7F7F00
036000
03E000
01E000
01C000
7FFF00
7FFF00
01C000
01C000
01C000
01C000
01C000
01C000
01C000
01C000
ENDCHAR
STARTCHAR 00A6
ENCODING 166
SWIDTH 230 0
DWIDTH 8 0
BBX 3 25 2 0
BITMAP
E0
E0
E0
E0
E0
E0
E0
E0
E0
E0
00
00
00
00
00
E0
E0
E0
E0
E0
E0
E0
E0
E0
E0
ENDCHAR
STARTCHAR 00A7
ENCODING 167
SWIDTH 432 0
DWIDTH 15 0
BBX 14 28 1 -3
BITMAP
0780
1FE0
3870
3820
3800
1C00
0E00
1F00
7F80
F3C0
E0E0
E070
F038
703C
381C
3C1C
1E1C
0FF8
07F0
03C0
01E0
00E0
0070
0070
3070
38E0
1FE0
0780
ENDCHAR
STARTCHAR 00A8
ENCODING 168
SWIDTH 230 0
DWIDTH 8 0
BBX 8 4 0 21
BITMAP
E3
E3
E3
E3
ENDCHAR
STARTCHAR 00A9
ENCODING 169
SWIDTH 806 0
DWIDTH 28 0
BBX 26 25 1 0
BITMAP
003F8000
01FFE000
07C0F800
0F003C00
1C000E00
383F0700
387FC700
70E1E380
71C06380
E18071C0
E38001C0
E38001C0
E38001C0
E38001C0
E38001C0
E1C061C0
71C06380
70F0E380
387FC700
3C3F0700
1E000E00
0F003C00
07E0F800
01FFE000
007F0000
ENDCHAR
STARTCHAR 00AA
ENCODING 170
SWIDTH 288 0
DWIDTH 10 0
BBX 9 11 0 14
BITMAP
1E80
7F80
7180
E180
E180
E180
E180
E180
7180
7F80
1E80
ENDCHAR
STARTCHAR 00AB
ENCODING 171
SWIDTH 432 0
DWIDTH 15 0
BBX 12 12 2 3
BITMAP
0C70
1C60
38C0
31C0
6380
E300
E300
6380
31C0
38C0
1C60
0C70
ENDCHAR
STARTCHAR 00AC
ENCODING 172
SWIDTH 604 0
DWIDTH 21 0
BBX 18 9 1 4
BITMAP
FFFFC0
FFFFC0
0001C0
0001C0
0001C0
0001C0
0001C0
0001C0
0001C0
ENDCHAR
STARTCHAR 00AD
ENCODING 173
SWIDTH 345 0
DWIDTH 12 0
BBX 8 2 1 8
BITMAP
FF
FF
ENDCHAR
STARTCHAR 00AE
ENCODING 174
SWIDTH 806 0
DWIDTH 28 0
BBX 26 25 1 0
BITMAP
003F8000
01FFE000
07C0F800
0F003C00
1E001E00
3CFF8F00
38FFC700
70E1E380
70E0E380
E0E0E180
E0E0E1C0
E0E1E1C0
E0FFC1C0
E0FF01C0
E0E701C0
E0E301C0
70E38380
70E1C380
78E1C700
38E0E700
1C000E00
0F003C00
07C0F800
01FFE000
007F8000
ENDCHAR
STARTCHAR 00AF
ENCODING 175
SWIDTH 230 0
DWIDTH 8 0
BBX 10 2 -1 22
BITMAP
FFC0
FFC0
ENDCHAR
STARTCHAR 00B0
ENCODING 176
SWIDTH 403 0
DWIDTH 14 0
BBX 10 10 2 15
BITMAP
1E00
7F80
6180
C0C0
C0C0
C0C0
C0C0
6180
3F00
1E00
ENDCHAR
STARTCHAR 00B1
ENCODING 177
SWIDTH 604 0
DWIDTH 21 0
BBX 17 17 2 0
BITMAP
01C000
01C000
01C000
01C000
01C000
01C000
FFFF80
FFFF80
01C000
01C000
01C000
01C000
01C000
000000
000000
FFFF80
FFFF80
ENDCHAR
STARTCHAR 00B2
ENCODING 178
SWIDTH 345 0
DWIDTH 12 0
BBX 10 15 1 10
BITMAP
3F00
7F80
63C0
E1C0
E1C0
01C0
0380
0780
0F00
1E00
1C00
3800
7000
FF80
FF80
ENDCHAR
STARTCHAR 00B3
ENCODING 179
SWIDTH 345 0
DWIDTH 12 0
BBX 12 15 0 10
BITMAP
1F80
3FC0
78E0
70E0
00E0
01C0
07C0
07C0
00E0
0070
0070
E070
70E0
7FE0
1F80
ENDCHAR
STARTCHAR 00B4
ENCODING 180
SWIDTH 230 0
DWIDTH 8 0
BBX 6 5 2 21
BITMAP
1C
38
70
60
C0
ENDCHAR
STARTCHAR 00B5
ENCODING 181
SWIDTH 489 0
DWIDTH 17 0
BBX 13 26 2 -7
BITMAP
E038
E038
E038
E038
E038
E038
E038
E038
E038
E038
E038
E038
E038
E038
E038
F078
F9F8
FFB8
FF38
E000
E000
E000
E000
E000
E000
E000
ENDCHAR
STARTCHAR 00B6
ENCODING 182
SWIDTH 604 0
DWIDTH 21 0
BBX 16 28 2 -4
BITMAP
0FFF
3FFF
7FC7
7FC7
FFC7
FFC7
FFC7
FFC7
FFC7
7FC7
7FC7
3FC7
0FC7
01C7
01C7
01C7
01C7
01C7
01C7
01C7
01C7
01C7
01C7
01C7
01C7
01C7
01C7
01C7
ENDCHAR
STARTCHAR 00B7
ENCODING 183
SWIDTH 288 0
DWIDTH 10 0
BBX 3 3 3 7
BITMAP
E0
E0
E0
ENDCHAR
STARTCHAR 00B8
ENCODING 184
SWIDTH 230 0
DWIDTH 8 0
BBX 7 7 1 -6
BITMAP
30
20
7C
0E
0E
FC
F8
ENDCHAR
STARTCHAR 00B9
ENCODING 185
SWIDTH 345 0
DWIDTH 12 0
BBX 5 15 3 10
BITMAP
F8
F8
38
38
38
38
38
38
38
38
38
38
38
38
38
ENDCHAR
STARTCHAR 00BA
ENCODING 186
SWIDTH 288 0
DWIDTH 10 0
BBX 11 11 0 14
BITMAP
1F00
3FC0
71C0
E0E0
E0E0
E0E0
E0E0
E0E0
71C0
3FC0
1F00
ENDCHAR
STARTCHAR 00BB
ENCODING 187
SWIDTH 432 0
DWIDTH 15 0
BBX 12 12 2 3
BITMAP
E300
6380
31C0
38C0
1C60
0C70
0C70
1C60
38C0
31C0
6380
E300
ENDCHAR
STARTCHAR 00BC
ENCODING 188
SWIDTH 835 0
DWIDTH 29 0
BBX 25 25 3 0
BITMAP
F800E000
F800E000
3801C000
3801C000
38038000
38038000
38070000
38070000
380E0000
380E0000
381C1E00
381C1E00
38383E00
38307E00
38706E00
0060EE00
00E1CE00
01C18E00
01C38E00
03830E00
0387FF80
0707FF80
07000E00
0E000E00
0E000E00
ENDCHAR
STARTCHAR 00BD
ENCODING 189
SWIDTH 835 0
DWIDTH 29 0
BBX 24 25 3 0
BITMAP
F801C0
F80180
380380
380300
380700
380600
380E00
380C00
381C00
381800
3838FC
3871FE
38718F
38E387
38E387
01C007
01C00E
03801E
03803C
070078
070070
0E00E0
0E01C0
1C03FE
1C03FE
ENDCHAR
STARTCHAR 00BE
ENCODING 190
SWIDTH 835 0
DWIDTH 29 0
BBX 27 25 1 0
BITMAP
1F800C00
3FC01C00
78E01800
70E03800
00E07000
01C07000
07C0E000
07C0E000
00E1C000
0071C000
00738780
E0738780
F0F70F80
7FE70F80
1F8E1B80
000E3B80
001C3380
001C7380
00386380
0038E380
0070FFE0
0070FFE0
00E00380
00E00380
01C00380
ENDCHAR
STARTCHAR 00BF
ENCODING 191
SWIDTH 432 0
DWIDTH 15 0
BBX 13 25 1 -7
BITMAP
0380
0380
0380
0380
0000
0000
0380
0380
0380
0380
0380
0780
0F00
1E00
3800
7000
E000
E038
E038
E038
E038
7038
7870
3FE0
0FC0
ENDCHAR
STARTCHAR 00C0
ENCODING 192
SWIDTH 489 0
DWIDTH 17 0
BBX 17 31 0 0
BITMAP
060000
030000
030000
018000
00C000
000000
03C000
03C000
03C000
03E000
066000
066000
067000
067000
0E3000
0C3000
0C3800
0C3800
1C1800
181C00
181C00
3FFC00
3FFE00
300E00
300E00
700600
700700
600700
600700
E00380
C00380
ENDCHAR
STARTCHAR 00C1
ENCODING 193
SWIDTH 489 0
DWIDTH 17 0
BBX 17 31 0 0
BITMAP
007000
006000
00C000
018000
010000
000000
03C000
03C000
03C000
03E000
076000
066000
067000
067000
0E3000
0C3000
0C3800
0C3800
1C1800
181C00
181C00
3FFC00
3FFE00
300E00
300E00
700E00
700700
600700
600700
E00380
C00380
ENDCHAR
STARTCHAR 00C2
ENCODING 194
SWIDTH 489 0
DWIDTH 17 0
BBX 17 31 0 0
BITMAP
01C000
03E000
033000
063800
0C1C00
000000
01E000
03E000
03E000
036000
037000
073000
063000
063000
0E3800
0E1800
0C1800
0C1C00
1C1C00
180C00
180C00
1FFE00
3FFE00
380600
300600
300700
700300
700300
600300
E00380
E00180
ENDCHAR
STARTCHAR 00C3
ENCODING 195
SWIDTH 489 0
DWIDTH 17 0
BBX 17 31 0 0
BITMAP
070C00
0FC800
09F800
187000
000000
000000
01C000
03E000
03E000
036000
076000
077000
063000
063000
0E3800
0C3800
0C1800
0C1800
1C1C00
181C00
180C00
1FFC00
3FFE00
300E00
300600
700700
700700
600300
600300
E00380
C00380
ENDCHAR
STARTCHAR 00C4
ENCODING 196
SWIDTH 489 0
DWIDTH 17 0
BBX 17 31 0 0
BITMAP
073800
073800
073800
073800
000000
000000
01C000
01E000
01E000
03E000
033000
033000
033000
063000
061800
061800
0C1800
0C1800
0C0C00
1C0C00
180C00
1FFC00
1FFE00
380600
300600
300300
700300
600300
600300
E00180
E00180
ENDCHAR
STARTCHAR 00C5
ENCODING 197
SWIDTH 489 0
DWIDTH 17 0
BBX 17 33 0 1
BITMAP
03E000
062000
041000
041000
041000
022000
01C000
000000
03C000
03E000
03E000
036000
076000
067000
067000
063000
0E3800
0C3800
0C3800
1C1800
1C1C00
181C00
180C00
3FFC00
3FFE00
300E00
300600
700700
600700
600700
600300
E00380
C00380
ENDCHAR
STARTCHAR 00C6
ENCODING 198
SWIDTH 835 0
DWIDTH 29 0
BBX 27 25 0 0
BITMAP
0007FFE0
000FFFE0
000F8000
001B8000
001B8000
00338000
00738000
00638000
00E38000
00C38000
01C38000
0183FFE0
0383FFE0
03038000
07038000
07FF8000
0FFF8000
0C038000
1C038000
18038000
38038000
30038000
70038000
6003FFE0
E003FFE0
ENDCHAR
STARTCHAR 00C7
ENCODING 199
SWIDTH 547 0
DWIDTH 19 0
BBX 17 32 1 -7
BITMAP
03F000
0FFC00
1E3E00
380E00
380700
700700
700380
600380
E00380
E00000
E00000
E00000
E00000
E00000
E00000
E00000
E00380
700380
700380
700380
380700
3C0F00
1E3E00
0FFC00
03F000
00C000
018000
01F000
003800
003800
07F000
03E000
ENDCHAR
STARTCHAR 00C8
ENCODING 200
SWIDTH 489 0
DWIDTH 17 0
BBX 12 31 2 0
BITMAP
1800
1C00
0C00
0600
0300
0000
FFF0
FFF0
E000
E000
E000
E000
E000
E000
E000
E000
E000
FFF0
FFF0
E000
E000
E000
E000
E000
E000
E000
E000
E000
E000
FFF0
FFF0
ENDCHAR
STARTCHAR 00C9
ENCODING 201
SWIDTH 489 0
DWIDTH 17 0
BBX 12 31 2 0
BITMAP
01C0
0180
0300
0600
0C00
0000
FFF0
FFF0
E000
E000
E000
E000
E000
E000
E000
E000
E000
FFF0
FFF0
E000
E000
E000
E000
E000
E000
E000
E000
E000
E000
FFF0
FFF0
ENDCHAR
STARTCHAR 00CA
ENCODING 202
SWIDTH 489 0
DWIDTH 17 0
BBX 12 31 2 0
BITMAP
0700
0F00
1980
38C0
70E0
0000
FFF0
FFF0
E000
E000
E000
E000
E000
E000
E000
E000
E000
FFF0
FFF0
E000
E000
E000
E000
E000
E000
E000
E000
E000
E000
FFF0
FFF0
ENDCHAR
STARTCHAR 00CB
ENCODING 203
SWIDTH 489 0
DWIDTH 17 0
BBX 14 31 2 0
BITMAP
1860
1860
1860
1860
0000
0000
FFFC
FFFC
E000
E000
E000
E000
E000
E000
E000
E000
E000
FFFC
FFFC
E000
E000
E000
E000
E000
E000
E000
E000
E000
E000
FFFC
FFFC
ENDCHAR
STARTCHAR 00CC
ENCODING 204
SWIDTH 230 0
DWIDTH 8 0
BBX 5 31 1 0
BITMAP
C0
60
60
30
18
00
38
38
38
38
38
38
38
38
38
38
38
38
38
38
38
38
38
38
38
38
38
38
38
38
38
ENDCHAR
STARTCHAR 00CD
ENCODING 205
SWIDTH 230 0
DWIDTH 8 0
BBX 5 31 3 0
BITMAP
18
30
60
C0
80
00
E0
E0
E0
E0
E0
E0
E0
E0
E0
E0
E0
E0
E0
E0
E0
E0
E0
E0
E0
E0
E0
E0
E0
E0
E0
ENDCHAR
STARTCHAR 00CE
ENCODING 206
SWIDTH 230 0
DWIDTH 8 0
BBX 10 31 -1 0
BITMAP
0E00
1B00
3300
7180
E0C0
0000
0E00
0E00
0E00
0E00
0E00
0E00
0E00
0E00
0E00
0E00
0E00
0E00
0E00
0E00
0E00
0E00
0E00
0E00
0E00
0E00
0E00
0E00
0E00
0E00
0E00
ENDCHAR
STARTCHAR 00CF
ENCODING 207
SWIDTH 230 0
DWIDTH 8 0
BBX 8 31 0 0
BITMAP
E3
E3
E3
E3
00
00
1C
1C
1C
1C
1C
1C
1C
1C
1C
1C
1C
1C
1C
1C
1C
1C
1C
1C
1C
1C
1C
1C
1C
1C
1C
ENDCHAR
STARTCHAR 00D0
ENCODING 208
SWIDTH 604 0
DWIDTH 21 0
BBX 21 25 -1 0
BITMAP
1FFC00
1FFF00
1C07C0
1C01C0
1C00E0
1C0070
1C0070
1C0070
1C0038
1C0038
1C0038
FFF838
FFF838
1C0038
1C0038
1C0038
1C0030
1C0070
1C0070
1C0070
1C00E0
1C01C0
1C0780
1FFF00
1FFC00
ENDCHAR
STARTCHAR 00D1
ENCODING 209
SWIDTH 604 0
DWIDTH 21 0
BBX 17 31 2 0
BITMAP
070400
0FCC00
19F800
107000
000000
000000
F00380
F00380
F80380
F80380
FC0380
FC0380
EE0380
EE0380
E70380
E78380
E38380
E1C380
E1C380
E0E380
E0E380
E07380
E07B80
E03B80
E03F80
E01F80
E00F80
E00F80
E00780
E00780
E00380
ENDCHAR
STARTCHAR 00D2
ENCODING 210
SWIDTH 604 0
DWIDTH 21 0
BBX 19 31 1 0
BITMAP
070000
038000
018000
00C000
006000
000000
03F000
0FFC00
1F1F00
3C0700
380380
7001C0
7001C0
6001C0
E000E0
E000E0
E000E0
E000E0
E000E0
E000E0
E000E0
E000E0
E000E0
6001C0
7001C0
7001C0
380380
3C0700
1E1F00
0FFC00
03F000
ENDCHAR
STARTCHAR 00D3
ENCODING 211
SWIDTH 604 0
DWIDTH 21 0
BBX 19 31 1 0
BITMAP
003800
007000
006000
00C000
018000
000000
03F000
0FFC00
1F1F00
3C0700
380380
7001C0
7001C0
6001C0
E000E0
E000E0
E000E0
E000E0
E000E0
E000E0
E000E0
E000E0
E000E0
6001C0
7001C0
7001C0
380380
3C0700
1E1F00
0FFC00
03F000
ENDCHAR
STARTCHAR 00D4
ENCODING 212
SWIDTH 604 0
DWIDTH 21 0
BBX 19 31 1 0
BITMAP
01E000
01E000
033000
061800
0E1C00
000000
03F000
0FFC00
1F1F00
3C0700
380380
7001C0
7001C0
6001C0
E000E0
E000E0
E000E0
E000E0
E000E0
E000E0
E000E0
E000E0
E000E0
6001C0
7001C0
7001C0
380380
3C0700
1E1F00
0FFC00
03F000
ENDCHAR
STARTCHAR 00D5
ENCODING 213
SWIDTH 604 0
DWIDTH 21 0
BBX 19 31 1 0
BITMAP
038200
07E600
0CFC00
0C3800
000000
000000
03F800
0FFE00
1F1F00
3C0780
380380
7001C0
7001C0
6001C0
E000E0
E000E0
E000E0
E000E0
E000E0
E000E0
E000E0
E000E0
E000E0
6000C0
7001C0
7001C0
380380
3C0780
1F1F00
0FFE00
03F800
ENDCHAR
STARTCHAR 00D6
ENCODING 214
SWIDTH 604 0
DWIDTH 21 0
BBX 19 31 1 0
BITMAP
038C00
038C00
038C00
038C00
000000
000000
01F800
07FE00
0F1F00
1C0780
380380
7001C0
7001C0
6001C0
E000E0
E000E0
E000E0
E000E0
E000E0
E000E0
E000E0
E000E0
E000E0
7000C0
7001C0
7001C0
380380
1C0380
1F0F00
07FE00
01F800
ENDCHAR
STARTCHAR 00D7
ENCODING 215
SWIDTH 604 0
DWIDTH 21 0
BBX 17 17 2 1
BITMAP
600300
F00780
780F00
3C1E00
1E3C00
0F7800
07F000
03E000
01C000
03E000
077000
0E3800
1C1C00
380E00
700700
E00380
400100
ENDCHAR
STARTCHAR 00D8
ENCODING 216
SWIDTH 604 0
DWIDTH 21 0
BBX 19 27 1 -1
BITMAP
0000E0
03F8C0
0FFF80
1F1F80
3C0780
380780
700FC0
700DC0
601DC0
E038E0
E030E0
E070E0
E060E0
E0C0E0
E1C0E0
E180E0
E300E0
E700E0
6600C0
7C01C0
7C01C0
380380
3C0780
7F1F00
6FFE00
E3F000
C00000
ENDCHAR
STARTCHAR 00D9
ENCODING 217
SWIDTH 547 0
DWIDTH 19 0
BBX 15 31 2 0
BITMAP
0C00
0600
0600
0300
0180
0000
E00E
E00E
E00E
E00E
E00E
E00E
E00E
E00E
E00E
E00E
E00E
E00E
E00E
E00E
E00E
E00E
E00E
E00E
E00E
E00E
E00E
701C
7C7C
3FF8
0FE0
ENDCHAR
STARTCHAR 00DA
ENCODING 218
SWIDTH 547 0
DWIDTH 19 0
BBX 15 31 2 0
BITMAP
00E0
00C0
0180
0300
0200
0000
E00E
E00E
E00E
E00E
E00E
E00E
E00E
E00E
E00E
E00E
E00E
E00E
E00E
E00E
E00E
E00E
E00E
E00E
E00E
E00E
E00E
701C
7C7C
3FF8
0FE0
ENDCHAR
STARTCHAR 00DB
ENCODING 219
SWIDTH 547 0
DWIDTH 19 0
BBX 16 31 2 0
BITMAP
03C0
03C0
0660
0C30
1838
0000
E007
E007
E007
E007
E007
E007
E007
E007
E007
E007
E007
E007
E007
E007
E007
E007
E007
E007
E007
E007
F00F
700E
7C3E
3FF8
0FE0
ENDCHAR
STARTCHAR 00DC
ENCODING 220
SWIDTH 547 0
DWIDTH 19 0
BBX 15 31 2 0
BITMAP
0E30
0E30
0E30
0E30
0000
0000
E00E
E00E
E00E
E00E
E00E
E00E
E00E
E00E
E00E
E00E
E00E
E00E
E00E
E00E
E00E
E00E
E00E
E00E
E00E
E00E
F00E
701C
7E3C
3FF8
07E0
ENDCHAR
STARTCHAR 00DD
ENCODING 221
SWIDTH 489 0
DWIDTH 17 0
BBX 16 31 0 0
BITMAP
0030
0060
00C0
0180
0300
0000
E007
7007
700E
380E
380C
381C
1C1C
1C38
0E38
0E30
0770
0760
03E0
03E0
01C0
01C0
01C0
01C0
01C0
01C0
01C0
01C0
01C0
01C0
01C0
ENDCHAR
STARTCHAR 00DE
ENCODING 222
SWIDTH 547 0
DWIDTH 19 0
BBX 16 25 2 0
BITMAP
E000
E000
E000
E000
E000
FFF0
FFF8
E03C
E00E
E00E
E007
E007
E007
E007
E007
E00E
E00E
E03C
FFF8
FFE0
E000
E000
E000
E000
E000
ENDCHAR
STARTCHAR 00DF
ENCODING 223
SWIDTH 547 0
DWIDTH 19 0
BBX 16 25 2 0
BITMAP
07C0
1FF0
3CF8
7038
701C
E01C
E01C
E01C
E01C
E01C
E038
E0F8
E3E0
E3FC
E03E
E00E
E007
E007
F807
F807
F807
FC0E
EFFE
E7FC
E3F0
ENDCHAR
STARTCHAR 00E0
ENCODING 224
SWIDTH 489 0
DWIDTH 17 0
BBX 15 26 1 0
BITMAP
0C00
0600
0600
0300
0180
0000
0000
0F8E
1FEE
3CFE
703E
701E
600E
E00E
E00E
E00E
E00E
E00E
E00E
E00E
700E
701E
783E
3CFE
1FEE
0FCE
ENDCHAR
STARTCHAR 00E1
ENCODING 225
SWIDTH 489 0
DWIDTH 17 0
BBX 15 26 1 0
BITMAP
00E0
00C0
0180
0300
0200
0000
0000
0F8E
1FEE
3CFE
703E
701E
600E
E00E
E00E
E00E
E00E
E00E
E00E
E00E
700E
701E
783E
3CFE
1FEE
0FCE
ENDCHAR
STARTCHAR 00E2
ENCODING 226
SWIDTH 489 0
DWIDTH 17 0
BBX 14 26 1 0
BITMAP
0380
0780
0CC0
1C60
3870
0000
0000
0F9C
1FDC
3CFC
703C
703C
601C
E01C
E01C
E01C
E01C
E01C
E01C
E01C
701C
703C
783C
3CFC
1FDC
0F9C
ENDCHAR
STARTCHAR 00E3
ENCODING 227
SWIDTH 489 0
DWIDTH 17 0
BBX 15 25 1 0
BITMAP
0E08
13F8
30F0
3000
0000
0000
07CE
1FEE
3C7E
781E
701E
600E
E00E
E00E
E00E
E00E
E00E
E00E
E00E
700E
701E
781E
3C7E
1FEE
07CE
ENDCHAR
STARTCHAR 00E4
ENCODING 228
SWIDTH 489 0
DWIDTH 17 0
BBX 15 25 1 0
BITMAP
0C30
0C30
0C30
0C30
0000
0000
07CE
1FEE
3E7E
381E
701E
700E
E00E
E00E
E00E
E00E
E00E
E00E
E00E
700E
701E
781E
3E7E
1FEE
07CE
ENDCHAR
STARTCHAR 00E5
ENCODING 229
SWIDTH 489 0
DWIDTH 17 0
BBX 15 28 1 1
BITMAP
07C0
0C40
0820
0820
0820
0440
0380
0000
0000
07CE
1FEE
3CFE
703E
701E
600E
E00E
E00E
E00E
E00E
E00E
E00E
E00E
700E
701E
781E
3C7E
1FEE
0FCE
ENDCHAR
STARTCHAR 00E6
ENCODING 230
SWIDTH 777 0
DWIDTH 27 0
BBX 25 19 1 0
BITMAP
0F9CF800
1FDDFE00
3CFF9E00
703F0700
703E0300
E01C0380
E01C0380
E01C0380
E01FFF80
E01FFF80
E01C0000
E01C0000
E01C0380
601E0380
703E0380
703F0700
3CFF9E00
1FDDFC00
0F9CF800
ENDCHAR
STARTCHAR 00E7
ENCODING 231
SWIDTH 432 0
DWIDTH 15 0
BBX 13 26 1 -7
BITMAP
0FC0
1FE0
3CF0
7070
7038
6038
E038
E000
E000
E000
E000
E000
E038
7038
7038
7870
3CF0
1FE0
0FC0
0300
0200
07C0
00E0
00E0
0FC0
0F80
ENDCHAR
STARTCHAR 00E8
ENCODING 232
SWIDTH 432 0
DWIDTH 15 0
BBX 14 26 1 0
BITMAP
1C00
0C00
0600
0300
0180
0000
0000
07C0
1FE0
3CF0
7038
7038
601C
E01C
E01C
FFFC
FFFC
E000
E000
E01C
601C
7038
7838
3CF0
1FE0
07C0
ENDCHAR
STARTCHAR 00E9
ENCODING 233
SWIDTH 432 0
DWIDTH 15 0
BBX 13 26 1 0
BITMAP
00C0
0180
0300
0200
0400
0000
0000
0F80
1FE0
3DE0
7070
7070
E038
E038
E038
FFF8
FFF8
E000
E000
E038
6038
7030
7070
3CE0
1FC0
0F80
ENDCHAR
STARTCHAR 00EA
ENCODING 234
SWIDTH 432 0
DWIDTH 15 0
BBX 14 26 1 0
BITMAP
0780
0780
0CC0
1860
3070
0000
0000
07C0
1FF0
3CF0
7038
7018
601C
E01C
E01C
FFFC
FFFC
E000
E000
E01C
601C
701C
7838
3CF0
1FE0
07C0
ENDCHAR
STARTCHAR 00EB
ENCODING 235
SWIDTH 432 0
DWIDTH 15 0
BBX 14 25 1 0
BITMAP
1C60
1C60
1C60
1C60
0000
0000
07C0
1FF0
3EF0
7838
7038
601C
E01C
E01C
FFFC
FFFC
E000
E000
E01C
701C
7018
7838
3E70
1FE0
07C0
ENDCHAR
STARTCHAR 00EC
ENCODING 236
SWIDTH 230 0
DWIDTH 8 0
BBX 6 26 0 0
BITMAP
E0
70
30
18
0C
00
00
1C
1C
1C
1C
1C
1C
1C
1C
1C
1C
1C
1C
1C
1C
1C
1C
1C
1C
1C
ENDCHAR
STARTCHAR 00ED
ENCODING 237
SWIDTH 230 0
DWIDTH 8 0
BBX 6 26 2 0
BITMAP
0C
18
30
60
C0
00
00
70
70
70
70
70
70
70
70
70
70
70
70
70
70
70
70
70
70
70
ENDCHAR
STARTCHAR 00EE
ENCODING 238
SWIDTH 230 0
DWIDTH 8 0
BBX 10 26 -1 0
BITMAP
0E00
1B00
3300
7180
E0C0
0000
0000
0E00
0E00
0E00
0E00
0E00
0E00
0E00
0E00
0E00
0E00
0E00
0E00
0E00
0E00
0E00
0E00
0E00
0E00
0E00
ENDCHAR
STARTCHAR 00EF
ENCODING 239
SWIDTH 230 0
DWIDTH 8 0
BBX 8 25 0 0
BITMAP
E3
E3
E3
E3
00
00
1C
1C
1C
1C
1C
1C
1C
1C
1C
1C
1C
1C
1C
1C
1C
1C
1C
1C
1C
ENDCHAR
STARTCHAR 00F0
ENCODING 240
SWIDTH 489 0
DWIDTH 17 0
BBX 15 25 1 0
BITMAP
0C18
0E38
07F0
01C0
03E0
0E60
0C70
0038
0018
0FFC
1FFC
3C3C
701E
701E
E00E
E00E
E00E
E00E
E00E
E00E
701C
781C
3E78
1FF0
07C0
ENDCHAR
STARTCHAR 00F1
ENCODING 241
SWIDTH 489 0
DWIDTH 17 0
BBX 13 25 2 0
BITMAP
1C30
37F0
23E0
6000
0000
0000
E7C0
EFF0
FCF0
F078
E038
E038
E038
E038
E038
E038
E038
E038
E038
E038
E038
E038
E038
E038
E038
ENDCHAR
STARTCHAR 00F2
ENCODING 242
SWIDTH 489 0
DWIDTH 17 0
BBX 15 26 1 0
BITMAP
0C00
0600
0600
0300
0180
0000
0000
07C0
1FF0
3C78
783C
701C
700E
E00E
E00E
E00E
E00E
E00E
E00E
E00E
700E
701C
783C
3C78
1FF0
0FC0
ENDCHAR
STARTCHAR 00F3
ENCODING 243
SWIDTH 489 0
DWIDTH 17 0
BBX 15 26 1 0
BITMAP
00E0
00C0
0180
0300
0200
0000
0000
07C0
1FF0
3C78
783C
701C
700E
E00E
E00E
E00E
E00E
E00E
E00E
E00E
700E
701C
783C
3C78
1FF0
07C0
ENDCHAR
STARTCHAR 00F4
ENCODING 244
SWIDTH 489 0
DWIDTH 17 0
BBX 16 26 1 0
BITMAP
03C0
03C0
0660
0C30
1838
0000
0000
07E0
1FF8
3E7C
381E
700E
700E
E007
E007
E007
E007
E007
E007
E007
700E
700E
381E
3E7C
1FF8
07E0
ENDCHAR
STARTCHAR 00F5
ENCODING 245
SWIDTH 489 0
DWIDTH 17 0
BBX 15 25 1 0
BITMAP
0E18
1BF8
10F0
3000
0000
0000
07C0
1FF0
3C78
783C
701C
700E
E00E
E00E
E00E
E00E
E00E
E00E
E00E
700E
701C
783C
3C78
1FF0
07C0
ENDCHAR
STARTCHAR 00F6
ENCODING 246
SWIDTH 489 0
DWIDTH 17 0
BBX 15 25 1 0
BITMAP
0E30
0E30
0E30
0E30
0000
0000
07E0
1FF8
3C78
383C
701C
700E
E00E
E00E
E00E
E00E
E00E
E00E
E00E
700E
701C
381C
3E38
1FF0
07E0
ENDCHAR
STARTCHAR 00F7
ENCODING 247
SWIDTH 604 0
DWIDTH 21 0
BBX 16 19 2 0
BITMAP
03C0
03C0
03C0
0180
0000
0000
0000
0000
FFFF
FFFF
0000
0000
0000
0000
0180
03C0
03C0
03C0
0180
ENDCHAR
STARTCHAR 00F8
ENCODING 248
SWIDTH 489 0
DWIDTH 17 0
BBX 15 23 1 -2
BITMAP
000E
001C
07D8
1FF8
3C78
787C
707C
70EC
E0CE
E18E
E18E
E30E
E30E
E60E
E60E
7C0E
7C1C
383C
3C78
3FF0
77C0
6000
E000
ENDCHAR
STARTCHAR 00F9
ENCODING 249
SWIDTH 489 0
DWIDTH 17 0
BBX 13 26 2 0
BITMAP
1800
0C00
0400
0600
0300
0000
0000
E038
E038
E038
E038
E038
E038
E038
E038
E038
E038
E038
E038
E038
E038
E038
F078
79F8
7FB8
1F38
ENDCHAR
STARTCHAR 00FA
ENCODING 250
SWIDTH 489 0
DWIDTH 17 0
BBX 13 26 2 0
BITMAP
00C0
0180
0300
0200
0400
0000
0000
E038
E038
E038
E038
E038
E038
E038
E038
E038
E038
E038
E038
E038
E038
E038
F078
79F8
7FB8
1F38
ENDCHAR
STARTCHAR 00FB
ENCODING 251
SWIDTH 489 0
DWIDTH 17 0
BBX 14 26 2 0
BITMAP
0780
0780
0CC0
1860
3070
0000
0000
E01C
E01C
E01C
E01C
E01C
E01C
E01C
E01C
E01C
E01C
E01C
E01C
E01C
E01C
E01C
F03C
78FC
3FDC
1F9C
ENDCHAR
STARTCHAR 00FC
ENCODING 252
SWIDTH 489 0
DWIDTH 17 0
BBX 13 25 2 0
BITMAP
1C60
1C60
1C60
1C60
0000
0000
E038
E038
E038
E038
E038
E038
E038
E038
E038
E038
E038
E038
E038
E038
E038
F078
7CF8
3FF8
1FB8
ENDCHAR
STARTCHAR 00FD
ENCODING 253
SWIDTH 432 0
DWIDTH 15 0
BBX 15 33 0 -7
BITMAP
00E0
00C0
0180
0300
0200
0000
0000
E01E
E01E
601C
701C
703C
3038
3038
3838
1870
1870
1C70
0CE0
0CE0
0CE0
06C0
07C0
07C0
0780
0380
0380
0300
0700
0700
0600
0E00
0E00
ENDCHAR
STARTCHAR 00FE
ENCODING 254
SWIDTH 489 0
DWIDTH 17 0
BBX 14 32 2 -7
BITMAP
E000
E000
E000
E000
E000
E000
E7C0
FFE0
FCF0
F038
F038
E01C
E01C
E01C
E01C
E01C
E01C
E01C
E01C
E01C
F038
F038
FCF0
EFE0
E7C0
E000
E000
E000
E000
E000
E000
E000
ENDCHAR
STARTCHAR 00FF
ENCODING 255
SWIDTH 432 0
DWIDTH 15 0
BBX 15 32 0 -7
BITMAP
0E70
0E70
0E70
0E70
0000
0000
E006
E00E
700C
700C
701C
3018
3818
3838
1830
1C30
1C70
0C60
0C60
0EE0
06C0
06C0
07C0
0780
0380
0380
0300
0700
0700
0600
0E00
0E00
ENDCHAR
STARTCHAR 0131
ENCODING 305
SWIDTH 230 0
DWIDTH 8 0
BBX 3 19 2 0
BITMAP
E0
E0
E0
E0
E0
E0
E0
E0
E0
E0
E0
E0
E0
E0
E0
E0
E0
E0
E0
ENDCHAR
STARTCHAR 0141
ENCODING 321
SWIDTH 432 0
DWIDTH 15 0
BBX 14 25 0 0
BITMAP
3800
3800
3800
3800
3800
3800
3800
3800
3800
38E0
3BE0
3F80
7E00
F800
F800
3800
3800
3800
3800
3800
3800
3800
3800
3FFC
3FFC
ENDCHAR
STARTCHAR 0142
ENCODING 322
SWIDTH 230 0
DWIDTH 8 0
BBX 9 25 -1 0
BITMAP
1C00
1C00
1C00
1C00
1C00
1C00
1C00
1C00
1C80
1F80
1F80
3E00
FC00
FC00
9C00
1C00
1C00
1C00
1C00
1C00
1C00
1C00
1C00
1C00
1C00
ENDCHAR
STARTCHAR 0152
ENCODING 338
SWIDTH 950 0
DWIDTH 33 0
BBX 29 25 1 0
BITMAP
03F8FFF8
0FFEFFF8
1F1FE000
3C07E000
3803E000
7003E000
7001E000
6001E000
E000E000
E000E000
E000E000
E000FFF8
E000FFF8
E000E000
E000E000
E000E000
E000E000
6001E000
7001E000
7001E000
3803E000
3C07E000
1F1FE000
0FFEFFF8
03F8FFF8
ENDCHAR
STARTCHAR 0153
ENCODING 339
SWIDTH 777 0
DWIDTH 27 0
BBX 25 19 1 0
BITMAP
07C0F800
1FE3FE00
3CF79E00
78370700
703E0300
601C0380
E01C0380
E01C0380
E01FFF80
E01FFF80
E01C0000
E01C0000
E01C0380
601E0380
703E0380
783F0700
3CF79E00
1FE3FC00
0FC0F800
ENDCHAR
STARTCHAR 0160
ENCODING 352
SWIDTH 489 0
DWIDTH 17 0
BBX 17 31 1 0
BITMAP
181800
0C3000
066000
07C000
038000
000000
07E000
1FF800
3C7C00
700E00
E00E00
E00700
E00700
E00000
F00000
780000
3F0000
1FE000
07FC00
00FE00
001F00
000700
000380
E00380
E00380
E00380
E00300
700700
7E3E00
3FFC00
0FF000
ENDCHAR
STARTCHAR 0161
ENCODING 353
SWIDTH 432 0
DWIDTH 15 0
BBX 14 26 1 0
BITMAP
3830
1C60
0EC0
06C0
0380
0000
0000
0FC0
1FF0
3C78
703C
701C
701C
7000
3C00
3FC0
0FF0
01F8
003C
001C
E01C
E01C
F038
7C78
3FF0
0FC0
ENDCHAR
STARTCHAR 0178
ENCODING 376
SWIDTH 489 0
DWIDTH 17 0
BBX 17 31 1 0
BITMAP
0C3000
0C3000
0C3000
0C3000
000000
000000
E00380
E00700
700700
700E00
380E00
381C00
1C1C00
1C1800
0E3800
0E3000
077000
076000
03E000
03E000
01C000
01C000
01C000
01C000
01C000
01C000
01C000
01C000
01C000
01C000
01C000
ENDCHAR
STARTCHAR 017D
ENCODING 381
SWIDTH 432 0
DWIDTH 15 0
BBX 14 31 1 0
BITMAP
3870
1860
0CC0
0780
0700
0000
FFFC
FFFC
003C
0038
0078
0070
00F0
00E0
01E0
01C0
03C0
0380
0780
0700
0E00
0E00
1C00
1C00
3800
3800
7000
7000
E000
FFFC
FFFC
ENDCHAR
STARTCHAR 017E
ENCODING 382
SWIDTH 432 0
DWIDTH 15 0
BBX 13 26 1 0
BITMAP
3070
18E0
0CC0
0780
0700
0000
0000
7FF8
7FF8
0038
0070
00F0
00E0
01C0
03C0
0380
0700
0F00
0E00
1C00
3800
3800
7000
E000
FFF8
FFF8
ENDCHAR
STARTCHAR 0192
ENCODING 402
SWIDTH 547 0
DWIDTH 19 0
BBX 18 32 0 -7
BITMAP
0007C0
001FC0
003C00
003000
007000
006000
006000
00E000
00E000
00E000
1FFF00
1FFF00
00E000
00E000
00E000
00E000
00E000
00E000
00E000
00E000
00E000
00E000
00E000
01C000
01C000
01C000
01C000
018000
038000
4F0000
FF0000
FC0000
ENDCHAR
STARTCHAR 02C6
ENCODING 710
SWIDTH 230 0
DWIDTH 8 0
BBX 10 5 -1 21
BITMAP
1E00
1E00
3300
6180
E1C0
ENDCHAR
STARTCHAR 02C7
ENCODING 711
SWIDTH 230 0
DWIDTH 8 0
BBX 10 5 -1 21
BITMAP
E1C0
6180
3300
1E00
1E00
ENDCHAR
STARTCHAR 02C9
ENCODING 713
SWIDTH 230 0
DWIDTH 8 0
BBX 10 2 -1 22
BITMAP
FFC0
FFC0
ENDCHAR
STARTCHAR 02D8
ENCODING 728
SWIDTH 230 0
DWIDTH 8 0
BBX 10 5 -1 21
BITMAP
8040
C0C0
6180
7F80
1E00
ENDCHAR
STARTCHAR 02D9
ENCODING 729
SWIDTH 230 0
DWIDTH 8 0
BBX 3 4 3 21
BITMAP
E0
E0
E0
E0
ENDCHAR
STARTCHAR 02DA
ENCODING 730
SWIDTH 230 0
DWIDTH 8 0
BBX 7 7 0 22
BITMAP
3C
46
82
82
82
44
38
ENDCHAR
STARTCHAR 02DB
ENCODING 731
SWIDTH 230 0
DWIDTH 8 0
BBX 8 8 0 -7
BITMAP
03
1C
70
60
E0
E1
FF
7C
ENDCHAR
STARTCHAR 02DC
ENCODING 732
SWIDTH 230 0
DWIDTH 8 0
BBX 11 4 -1 21
BITMAP
3820
6FE0
43C0
C000
ENDCHAR
STARTCHAR 02DD
ENCODING 733
SWIDTH 230 0
DWIDTH 8 0
BBX 10 5 0 21
BITMAP
19C0
3380
7300
6600
CC00
ENDCHAR
STARTCHAR 03BC
ENCODING 956
SWIDTH 489 0
DWIDTH 17 0
BBX 13 26 2 -7
BITMAP
E038
E038
E038
E038
E038
E038
E038
E038
E038
E038
E038
E038
E038
E038
E038
F078
F9F8
FFB8
FF38
E000
E000
E000
E000
E000
E000
E000
ENDCHAR
STARTCHAR 2013
ENCODING 8211
SWIDTH 489 0
DWIDTH 17 0
BBX 17 2 0 9
BITMAP
FFFF80
FFFF80
ENDCHAR
STARTCHAR 2014
ENCODING 8212
SWIDTH 1008 0
DWIDTH 35 0
BBX 34 2 0 9
BITMAP
FFFFFFFFC0
FFFFFFFFC0
ENDCHAR
STARTCHAR 2018
ENCODING 8216
SWIDTH 230 0
DWIDTH 8 0
BBX 6 8 1 17
BITMAP
E0
60
70
30
38
18
1C
0C
ENDCHAR
STARTCHAR 2019
ENCODING 8217
SWIDTH 230 0
DWIDTH 8 0
BBX 6 8 1 17
BITMAP
0C
18
18
30
30
60
60
C0
ENDCHAR
STARTCHAR 201A
ENCODING 8218
SWIDTH 230 0
DWIDTH 8 0
BBX 6 8 1 -4
BITMAP
0C
18
18
30
30
60
60
C0
ENDCHAR
STARTCHAR 201C
ENCODING 8220
SWIDTH 345 0
DWIDTH 12 0
BBX 10 8 1 17
BITMAP
EC00
6600
7600
3300
3B00
1980
1D80
0CC0
ENDCHAR
STARTCHAR 201D
ENCODING 8221
SWIDTH 345 0
DWIDTH 12 0
BBX 10 8 1 17
BITMAP
0DC0
1980
1B80
3300
3700
6600
6E00
CC00
ENDCHAR
STARTCHAR 201E
ENCODING 8222
SWIDTH 345 0
DWIDTH 12 0
BBX 10 8 1 -4
BITMAP
0DC0
1980
1B80
3300
3300
6600
6600
EC00
ENDCHAR
STARTCHAR 2020
ENCODING 8224
SWIDTH 432 0
DWIDTH 15 0
BBX 11 28 2 -4
BITMAP
0600
0600
0600
0600
0600
0400
C420
FFE0
E460
0600
0600
0600
0600
0600
0600
0600
0600
0600
0600
0600
0600
0600
0600
0600
0600
0600
0600
0600
ENDCHAR
STARTCHAR 2021
ENCODING 8225
SWIDTH 432 0
DWIDTH 15 0
BBX 12 28 2 -4
BITMAP
0600
0600
0600
0600
0600
0600
8610
FFF0
C670
0600
0600
0600
0600
0600
0600
0600
0600
0600
0600
8630
FFF0
C670
0600
0600
0600
0600
0600
0600
ENDCHAR
STARTCHAR 2022
ENCODING 8226
SWIDTH 489 0
DWIDTH 17 0
BBX 12 13 2 6
BITMAP
0F00
3FC0
7FE0
7FE0
FFF0
FFF0
FFF0
FFF0
FFF0
7FE0
7FE0
3FC0
0F00
ENDCHAR
STARTCHAR 2026
ENCODING 8230
SWIDTH 1008 0
DWIDTH 35 0
BBX 26 3 4 1
BITMAP
E00E01C0
E00E01C0
E00E01C0
ENDCHAR
STARTCHAR 2030
ENCODING 8240
SWIDTH 1008 0
DWIDTH 35 0
BBX 32 25 1 0
BITMAP
1E030000
7F830000
61860000
C0C60000
C0C60000
C0CC0000
C0CC0000
C0D80000
C0D80000
61980000
7FB00000
1E300000
00600000
0063C078
0067F0FE
00CC3186
00D81983
01981B03
01981B03
01981B03
03181B03
03181B83
060C3186
060FF0FE
0603C078
ENDCHAR
STARTCHAR 2039
ENCODING 8249
SWIDTH 288 0
DWIDTH 10 0
BBX 7 12 1 3
BITMAP
0E
1C
18
30
70
E0
E0
70
30
18
1C
0E
ENDCHAR
STARTCHAR 203A
ENCODING 8250
SWIDTH 288 0
DWIDTH 10 0
BBX 7 12 1 3
BITMAP
E0
70
30
18
1C
0E
0E
1C
18
30
70
E0
ENDCHAR
STARTCHAR 2044
ENCODING 8260
SWIDTH 172 0
DWIDTH 6 0
BBX 17 25 -6 0
BITMAP
000380
000700
000700
000E00
000C00
001C00
001800
003800
007000
007000
00E000
00C000
01C000
018000
038000
070000
070000
0E0000
0C0000
1C0000
180000
380000
700000
700000
E00000
ENDCHAR
STARTCHAR 20AC
ENCODING 8364
SWIDTH 547 0
DWIDTH 19 0
BBX 16 25 1 0
BITMAP
00FC
03FF
07FF
0F01
0E00
1C00
1C00
1800
3800
FFFE
FFFC
3800
3800
3800
FFF8
FFF8
3800
1800
1C00
1C00
0E00
0F01
07FF
03FF
00FC
ENDCHAR
STARTCHAR 2122
ENCODING 8482
SWIDTH 979 0
DWIDTH 34 0
BBX 28 14 2 11
BITMAP
FFEF00F0
FFEF81F0
0E0F81F0
0E0FC1F0
0E0EC370
0E0EC370
0E0E6770
0E0E6670
0E0E7670
0E0E3E70
0E0E3C70
0E0E3C70
0E0E1870
0E0E1870
ENDCHAR
STARTCHAR 2212
ENCODING 8722
SWIDTH 604 0
DWIDTH 21 0
BBX 17 2 2 7
BITMAP
FFFF80
FFFF80
ENDCHAR
STARTCHAR 2215
ENCODING 8725
SWIDTH 172 0
DWIDTH 6 0
BBX 17 25 -6 0
BITMAP
000380
000700
000700
000E00
000C00
001C00
001800
003800
007000
007000
00E000
00C000
01C000
018000
038000
070000
070000
0E0000
0C0000
1C0000
180000
380000
700000
700000
E00000
ENDCHAR
STARTCHAR 2219
ENCODING 8729
SWIDTH 288 0
DWIDTH 10 0
BBX 3 3 3 7
BITMAP
E0
E0
E0
ENDCHAR
STARTCHAR FB01
ENCODING 64257
SWIDTH 432 0
DWIDTH 15 0
BBX 13 25 0 0
BITMAP
0F38
1F38
3838
3800
3800
3800
FF38
FF38
3838
3838
3838
3838
3838
3838
3838
3838
3838
3838
3838
3838
3838
3838
3838
3838
3838
ENDCHAR
STARTCHAR FB02
ENCODING 64258
SWIDTH 432 0
DWIDTH 15 0
BBX 13 25 0 0
BITMAP
0F38
1F38
3838
3838
3838
3838
FF38
FF38
3838
3838
3838
3838
3838
3838
3838
3838
3838
3838
3838
3838
3838
3838
3838
3838
3838
ENDCHAR
ENDFONT
